<svg width="71" height="45" viewBox="0 0 71 45" fill="none" xmlns="http://www.w3.org/2000/svg">
<g clip-path="url(#clip0_224_14)">
<path d="M66.2864 5.74758C66.2864 5.79888 66.2864 5.86301 66.2733 5.90149C66.2077 6.4017 66.2077 6.90191 66.247 7.41495C66.2733 7.54321 66.2995 7.67147 66.4045 7.77408C66.575 7.96646 66.8373 7.92799 66.9423 7.69712C66.9948 7.58169 66.9948 7.46625 66.9685 7.35082C66.8373 6.86343 66.8111 6.3504 66.798 5.85018C66.798 5.82453 66.798 5.78605 66.798 5.74758C66.9423 5.73475 67.0735 5.72192 67.1915 5.72192C67.2834 5.7091 67.3621 5.69627 67.4277 5.65779C67.6244 5.55519 67.6244 5.33715 67.4145 5.23454C67.3358 5.19606 67.2309 5.18323 67.1391 5.18323C66.8111 5.19606 66.4832 5.19606 66.1552 5.19606C66.0372 5.19606 65.9191 5.20889 65.801 5.22171C65.7354 5.23454 65.6567 5.23454 65.6043 5.27302C65.5124 5.31149 65.46 5.37562 65.46 5.4654C65.4731 5.55519 65.5124 5.60649 65.6043 5.64497C65.6567 5.68345 65.7223 5.69627 65.7879 5.69627C65.9453 5.7091 66.1159 5.73475 66.2864 5.74758ZM69.8938 6.33757C69.8938 6.3504 69.9069 6.36322 69.9069 6.36322C69.9594 6.70952 70.0119 7.043 70.0512 7.37647C70.0644 7.4919 70.0775 7.59451 70.1562 7.68429C70.3267 7.90233 70.5891 7.87668 70.7071 7.64582C70.7596 7.53038 70.7727 7.41495 70.7465 7.28669C70.6678 6.90191 70.6284 6.51713 70.5497 6.14518C70.4972 5.91431 70.4317 5.69627 70.3661 5.49106C70.3267 5.3628 70.2349 5.27301 70.0775 5.26019C69.9201 5.23454 69.802 5.31149 69.7364 5.42693C69.6577 5.52953 69.5921 5.63214 69.5396 5.74758C69.4478 5.95279 69.3691 6.15801 69.2642 6.3504C69.251 6.4017 69.2379 6.44018 69.2117 6.47865C69.1986 6.453 69.1855 6.44018 69.1855 6.44018C69.0149 6.11953 68.8575 5.79888 68.687 5.49106C68.6607 5.4654 68.6476 5.43975 68.6345 5.4141C68.5558 5.29867 68.464 5.23454 68.3197 5.23454C68.1885 5.24736 68.0835 5.32432 68.018 5.43975C67.9917 5.49106 67.9917 5.52953 67.9786 5.58084C67.9261 5.99127 67.8605 6.4017 67.8081 6.81213C67.7818 7.043 67.7687 7.27386 67.7687 7.50473C67.7556 7.55603 67.7687 7.62016 67.7949 7.67147C67.8212 7.77407 67.8999 7.83821 68.0048 7.85103C68.136 7.86386 68.2278 7.82538 68.2672 7.72277C68.3065 7.64582 68.3197 7.58169 68.3328 7.51756C68.3853 7.28669 68.4246 7.06865 68.464 6.85061C68.4902 6.72235 68.5033 6.61974 68.5427 6.47865C68.5689 6.52996 68.5951 6.56844 68.6214 6.60691C68.7394 6.76083 68.8575 6.91474 69.0018 7.043C69.1461 7.1456 69.2642 7.13278 69.3822 7.01734C69.4085 6.99169 69.4216 6.97887 69.4478 6.95321C69.5659 6.77365 69.7102 6.59409 69.8282 6.41452C69.8545 6.38887 69.8676 6.36322 69.8938 6.33757Z" fill="#3A3B7B"/>
<path d="M39.6683 5.99965C39.5771 6.2434 39.5597 6.41901 39.6018 6.56497C39.6483 6.76345 39.769 6.82843 39.9328 6.77795C41.4736 6.40542 44.8523 7.46282 46.1032 7.75753C46.3982 7.81941 46.6382 7.44706 46.4369 7.11322C46.1431 6.78992 42.7659 5.40575 41.4773 5.33028C40.9722 5.30237 40.0692 5.17573 39.6683 5.99965Z" fill="#3A3B7B"/>
<path d="M52.8729 1.51888C53.0371 1.61155 53.1289 1.69995 53.1742 1.79872C53.2417 1.92828 53.2061 2.01792 53.0927 2.06366C52.0742 2.54968 50.7189 4.64209 50.1718 5.36374C50.0392 5.52975 49.7333 5.43328 49.6871 5.16028C49.6966 4.8516 50.898 2.58087 51.5685 1.9624C51.832 1.72093 52.2673 1.24714 52.8729 1.51888Z" fill="#3A3B7B"/>
<path d="M44.762 0.488907C44.9593 0.34353 45.1643 0.292586 45.269 0.387063C46.8057 1.67201 47.6206 3.70684 48.1252 5.56968C48.1442 5.61308 48.1454 5.67536 48.1302 5.74033C48.1239 5.79586 48.0824 5.85452 48.0165 5.89991C47.9461 5.95002 47.8855 5.96528 47.857 5.9221C47.1835 5.02643 43.3368 1.54153 44.762 0.488907Z" fill="#3A3B7B"/>
<path d="M12.2206 22.7668C12.5889 22.4987 12.9893 22.2755 13.413 22.1023C13.8563 21.9784 14.3288 21.9989 14.7591 22.1609C15.1893 22.3229 15.554 22.6174 15.7978 23C16.0159 23.3816 16.1012 23.8222 16.041 24.2554C15.9808 24.6885 15.7783 25.0908 15.4639 25.4017C15.2202 25.6537 14.9435 25.8732 14.6412 26.0546C13.2938 26.9057 11.9344 27.7101 10.5751 28.5612C10.297 28.7742 10.0019 28.9653 9.69272 29.1325C9.22245 29.3618 8.68501 29.4232 8.17332 29.3061C7.66164 29.1891 7.2079 28.9008 6.89056 28.4913C6.65333 28.2013 6.45312 27.8842 6.29435 27.5469C5.00655 24.9004 3.67106 22.2655 2.43095 19.5723C1.85859 18.4065 1.39356 17.0657 0.940442 15.7716C0.744403 15.3956 0.706121 14.9597 0.833747 14.5565C0.961374 14.1533 1.24484 13.8147 1.62384 13.6127C2.00285 13.4107 2.44749 13.3613 2.86321 13.4749C3.27893 13.5885 3.63293 13.8562 3.84991 14.221C4.51686 15.0876 5.10725 16.0081 5.61468 16.9725C6.90248 19.3042 8.13067 21.6359 9.37077 23.8977C9.44298 24.0227 9.5226 24.1433 9.60925 24.2591C10.5426 23.8754 11.4205 23.3737 12.2206 22.7668Z" fill="#3A3B7B"/>
<path d="M25.5358 21.9533C22.5906 25.3226 17.654 24.4715 15.1738 20.1345C13.409 17.0566 13.099 11.9734 16.9386 8.76731C17.7585 8.09608 18.7389 7.63883 19.7884 7.43821C21.0752 7.25784 22.3874 7.4798 23.5374 8.07238C24.6874 8.66496 25.6164 9.59781 26.1917 10.7376C28.2903 14.4684 27.9922 19.2251 25.5358 21.9533ZM24.3434 14.0953C24.0305 13.1785 23.4028 12.3958 22.5667 11.8801C22.0936 11.5504 21.5187 11.3901 20.9389 11.4262C20.359 11.4623 19.8096 11.6926 19.383 12.0783C17.6779 13.559 17.3201 17.0683 18.5602 19.1552C18.7183 19.4955 18.9504 19.7979 19.2405 20.0413C19.5306 20.2847 19.8716 20.4632 20.2396 20.5642C20.6076 20.6653 20.9937 20.6865 21.371 20.6264C21.7483 20.5662 22.1075 20.4262 22.4237 20.2161C23.348 19.5154 24.0261 18.5506 24.3637 17.4558C24.7014 16.3609 24.6818 15.1904 24.3077 14.107L24.3434 14.0953Z" fill="#3A3B7B"/>
<path d="M37.5551 15.5643C37.2536 15.6277 36.9421 15.6315 36.639 15.5754C36.336 15.5193 36.0474 15.4046 35.7904 15.2379C35.5655 15.1121 35.3719 14.9392 35.2235 14.7315C35.0752 14.5238 34.9758 14.2866 34.9325 14.0368C34.8891 13.7871 34.903 13.5311 34.9729 13.2872C35.0429 13.0433 35.1674 12.8176 35.3373 12.6263C35.6333 12.2419 36.0535 11.9667 36.5297 11.8452C37.773 11.4924 39.0529 11.2773 40.3454 11.204C40.6294 11.1717 40.9171 11.1952 41.1916 11.2731C41.4662 11.3511 41.722 11.4818 41.9442 11.6578C42.1663 11.8337 42.3503 12.0513 42.4853 12.2977C42.6202 12.5441 42.7035 12.8144 42.7302 13.0927C43.1028 14.4597 43.1436 15.893 42.8494 17.2782C41.7763 21.7551 38.0798 23.294 33.9302 21.86C32.7654 21.4766 31.7441 20.7622 30.9969 19.8081C30.0003 18.6591 29.2937 17.2974 28.934 15.8325C28.6426 14.528 28.6745 13.1744 29.0272 11.8845C29.3798 10.5946 30.0429 9.40588 30.9611 8.41758C31.8325 7.34341 32.9635 6.49803 34.2522 5.95758C35.0665 5.51873 36.0194 5.39395 36.9232 5.60782C37.1282 5.6633 37.3143 5.7714 37.4622 5.92091C37.6101 6.07043 37.7144 6.2559 37.7643 6.45811C37.8142 6.66031 37.8078 6.87188 37.7459 7.07088C37.6839 7.26987 37.5687 7.44904 37.4121 7.5898C37.1143 7.85335 36.7908 8.08765 36.4462 8.28932C35.3861 8.9494 34.4636 9.79995 33.7275 10.7959C33.245 11.4404 32.9127 12.1805 32.7541 12.964C32.5954 13.7475 32.6143 14.5555 32.8094 15.3312C33.0798 16.3888 33.6799 17.3381 34.5264 18.0476C37.1497 20.3794 40.56 18.1292 39.9638 14.9464C39.0934 15.1563 38.3302 15.3778 37.5551 15.5643Z" fill="#3A3B7B"/>
<path d="M53.5814 22.1398C49.7061 24.4716 45.2942 22.1398 44.3283 17.2432C43.6248 13.7456 44.9603 8.8489 49.6346 6.98351C50.6291 6.59516 51.7078 6.45881 52.7706 6.58711C54.0475 6.81566 55.2189 7.43029 56.1195 8.34436C57.0201 9.25842 57.6047 10.4258 57.7906 11.682C58.5776 15.8441 56.789 20.2861 53.5814 22.1398ZM54.9289 14.2935C54.9277 13.325 54.5773 12.3878 53.9392 11.647C53.5981 11.1888 53.105 10.8605 52.544 10.718C51.9829 10.5756 51.3888 10.6278 50.8627 10.8659C48.7641 11.7519 47.2855 14.9697 47.8221 17.3365C47.8631 17.7079 47.9865 18.0661 48.1838 18.386C48.3811 18.7059 48.6475 18.9798 48.9644 19.1886C49.2812 19.3973 49.6409 19.5359 50.0182 19.5946C50.3956 19.6532 50.7815 19.6306 51.1489 19.5283C52.2582 19.1494 53.2187 18.4413 53.8963 17.5028C54.574 16.5643 54.935 15.4423 54.9289 14.2935Z" fill="#3A3B7B"/>
<path d="M61.7095 23.1193C61.651 23.546 61.4216 23.9325 61.0716 24.1938C60.7216 24.455 60.2798 24.5697 59.8434 24.5125C59.407 24.4553 59.0117 24.2309 58.7445 23.8887C58.4772 23.5466 58.36 23.1146 58.4185 22.6879C58.477 22.2612 58.7065 21.8747 59.0564 21.6134C59.4064 21.3521 59.8482 21.2375 60.2846 21.2947C60.721 21.3519 61.1163 21.5762 61.3836 21.9184C61.6508 22.2606 61.7681 22.6926 61.7095 23.1193ZM60.6721 7.39164C60.8989 7.05299 61.2316 6.7951 61.6206 6.65643C62.0095 6.51776 62.4339 6.50574 62.8304 6.62217C63.2335 6.72078 63.5896 6.95179 63.8393 7.27652C64.0889 7.60126 64.2168 7.99999 64.2017 8.40595C64.1491 9.05712 64.0495 9.70385 63.9036 10.3413C63.5101 12.4982 63.1285 14.655 62.7112 16.7886C62.5204 17.6397 62.27 18.4558 61.9957 19.3185C61.9003 19.5882 61.7409 19.8319 61.5307 20.0297C61.4 20.1785 61.2331 20.2926 61.0453 20.3615C60.8575 20.4305 60.655 20.452 60.4565 20.4241C60.258 20.3962 60.0698 20.3198 59.9095 20.202C59.7492 20.0841 59.6219 19.9286 59.5394 19.7499C59.3976 19.4293 59.3206 19.0848 59.3128 18.7356C59.3128 17.2899 59.3128 15.8326 59.4082 14.3752C59.5703 12.2954 59.8891 10.23 60.3621 8.19609C60.4178 7.92359 60.5227 7.663 60.6721 7.42662V7.39164Z" fill="#3A3B7B"/>
<path fill-rule="evenodd" clip-rule="evenodd" d="M7.18277 32.4879C7.04198 32.7952 7.00337 33.1378 7.07217 33.4675C7.11794 33.9021 7.21847 34.3296 7.37147 34.7402C7.56249 35.243 7.77624 35.7402 8.0398 36.353C8.10041 36.494 8.16375 36.6412 8.23003 36.7961C8.58545 37.6263 9.03141 38.6873 9.62626 40.2228C9.79463 40.659 9.94414 41.0988 10.0947 41.5416C10.1555 41.7205 10.2166 41.9 10.279 42.0799C10.503 42.7195 10.8884 43.2941 11.3992 43.7495C11.6161 43.9998 11.9038 44.1822 12.2264 44.2734C12.5553 44.3664 12.9051 44.3605 13.2305 44.2565C13.5559 44.1524 13.8417 43.955 14.0508 43.6899C14.2558 43.43 14.3777 43.1168 14.4014 42.7896C14.5344 42.1522 14.489 41.4913 14.2698 40.8768C13.9219 39.8565 13.5256 38.8347 13.0686 37.8353L13.0665 37.8309C12.3147 36.2673 11.5505 34.7145 10.7501 33.1611L10.7441 33.1502C10.5098 32.7455 10.2053 32.3837 9.84432 32.0811C9.60996 31.811 9.28669 31.6288 8.92969 31.566C8.56508 31.5019 8.18904 31.5665 7.8687 31.7484C7.56566 31.9176 7.32544 32.1765 7.18277 32.4879Z" fill="#3A3B7B"/>
<path fill-rule="evenodd" clip-rule="evenodd" d="M18.6654 28.6377C17.4866 28.3392 16.2555 28.2957 15.0579 28.5103C14.1303 28.5996 13.218 28.8088 12.5845 29.2232C12.2623 29.4341 12.0018 29.7049 11.8569 30.0491C11.7112 30.3952 11.6926 30.791 11.812 31.232C12.03 32.0398 12.3131 32.8252 12.5952 33.6081L12.6409 33.7349L12.642 33.7377C13.4914 36.0121 14.3489 38.2788 15.2142 40.5377C15.3151 40.8937 15.4578 41.2371 15.6394 41.561L15.6428 41.567C15.8827 41.9694 16.1904 42.3293 16.5529 42.6316C16.7342 42.7978 16.9584 42.9128 17.2015 42.9642C17.447 43.016 17.7023 43.001 17.9396 42.9206C18.177 42.8403 18.3872 42.6978 18.5474 42.5086C18.705 42.3225 18.8082 42.0983 18.8461 41.8597C19.0025 41.2115 18.9524 40.532 18.7024 39.9124C18.6244 39.7039 18.5632 39.4908 18.4987 39.2665C18.4772 39.1917 18.4554 39.1156 18.4324 39.0381C20.4131 38.2811 22.5206 37.2632 23.2617 34.8952C23.5519 34.0769 23.5761 33.1908 23.3309 32.3584C23.0855 31.5251 22.582 30.7865 21.8898 30.2443C20.9477 29.4853 19.8472 28.9369 18.6654 28.6377ZM15.3979 31.5422C15.4369 31.5312 15.4762 31.521 15.5156 31.5115C16.8051 31.3133 18.1244 31.5774 19.2306 32.255C19.7181 32.5865 19.9178 32.9548 19.9521 33.3092C19.9875 33.6741 19.8518 34.0695 19.5792 34.4496C19.0641 35.1676 18.1241 35.7423 17.275 35.8494C16.656 34.4556 16.0274 33.0054 15.3979 31.5422Z" fill="#3A3B7B"/>
<path d="M26.5242 26.0864C27.928 25.4525 29.6669 25.343 31.0276 25.7887C31.3703 25.8863 31.6676 26.0974 31.8687 26.3859C32.0685 26.6726 32.1607 27.0181 32.1299 27.3635C32.1279 27.5877 32.0716 27.8083 31.9657 28.0073C31.8579 28.2099 31.7018 28.3841 31.5106 28.5153C31.3194 28.6464 31.0987 28.7307 30.8672 28.7608C30.6356 28.791 30.4001 28.7662 30.1804 28.6885L30.1637 28.6826L30.148 28.6745C30.0356 28.617 29.9162 28.5737 29.7927 28.5455L29.7849 28.5438C28.8277 28.2952 27.9248 28.7071 27.595 29.2132C27.4377 29.4545 27.4182 29.6981 27.5492 29.9197C27.6895 30.157 28.0336 30.4233 28.7299 30.6131C28.9214 30.6645 29.1177 30.7141 29.3168 30.7645C29.8674 30.9039 30.4396 31.0487 30.9929 31.2494L30.995 31.2502C33.5476 32.1998 34.4981 34.1665 34.1727 36.0163C33.8508 37.8456 32.2883 39.5104 29.9386 39.9031C29.0836 40.0884 28.1938 40.0523 27.3573 39.7984C26.5187 39.5437 25.7628 39.079 25.1647 38.4502L25.1491 38.4338C24.9603 38.1969 24.8333 37.9186 24.777 37.6233C24.7252 37.3568 24.7525 37.0814 24.8555 36.8295C24.9579 36.5791 25.1311 36.3624 25.3546 36.2045C25.5907 36.0255 25.8753 35.9181 26.1732 35.8957C26.4701 35.8734 26.7672 35.9365 27.0279 36.0771C27.2883 36.2001 27.5305 36.357 27.7479 36.5436L27.752 36.547C28.1366 36.8909 28.6019 36.9805 29.0481 36.8975C29.5008 36.8133 29.9265 36.5514 30.2003 36.2039C30.4723 35.8586 30.5815 35.4484 30.4519 35.0502C30.3215 34.6491 29.9294 34.1997 29.0679 33.824C28.8427 33.7305 28.6092 33.6551 28.3663 33.5817C28.3008 33.5619 28.2342 33.5422 28.1668 33.5222C27.9872 33.4689 27.8024 33.414 27.6212 33.3535C27.4964 33.3119 27.3726 33.2725 27.25 33.2334C26.9149 33.1267 26.5882 33.0227 26.2738 32.8832C25.5895 32.6554 24.9983 32.218 24.5882 31.6357C24.1764 31.0511 23.9692 30.352 23.9974 29.6428C23.9996 27.9145 25.1129 26.7238 26.5242 26.0864Z" fill="#3A3B7B"/>
<path d="M44.3215 25.9023C44.0493 25.7723 43.7483 25.7106 43.4457 25.7227C43.143 25.7349 42.8482 25.8205 42.5879 25.972C42.3292 26.1224 42.1126 26.333 41.9574 26.5851C41.8151 26.7974 41.7166 27.0348 41.6675 27.2841C41.6184 27.5332 41.6196 27.7892 41.6709 28.0377C41.7216 28.3571 41.7778 28.6677 41.8333 28.974C41.9252 29.4809 42.0146 29.9764 42.0736 30.4816L42.0758 30.4944C42.2101 31.2867 42.2804 32.088 42.2867 32.891L42.2873 32.9024C42.3332 33.7696 42.031 34.6199 41.4455 35.2729L41.4362 35.2845C41.2457 35.5232 40.991 35.7054 40.7005 35.8107C40.4101 35.916 40.0955 35.9402 39.7918 35.8806C39.4881 35.821 39.2074 35.68 38.981 35.4733C38.7546 35.2666 38.5913 35.0016 38.5098 34.7095C38.3358 34.0938 38.2351 33.4605 38.2095 32.8223L38.5067 28.196C38.5111 28.1356 38.5161 28.0736 38.5212 28.011C38.5325 27.8705 38.5441 27.7274 38.5489 27.5939C38.5559 27.3975 38.5499 27.1955 38.5031 27.0043C38.4552 26.8089 38.3641 26.623 38.2025 26.4647C38.0425 26.308 37.8265 26.1924 37.5547 26.1137C37.0632 25.9746 36.6476 25.979 36.3013 26.1227C35.9548 26.2664 35.7174 26.5332 35.5494 26.8414C35.3827 27.147 35.2756 27.5088 35.1946 27.8712C35.1345 28.1401 35.0862 28.4224 35.0403 28.6911C35.0244 28.7837 35.0089 28.8746 34.9932 28.9629L34.9928 28.9655C34.7472 30.4391 34.6741 31.9353 34.7749 33.4251C34.7937 34.2302 34.9654 35.0249 35.2814 35.7686C35.6379 36.7282 36.2836 37.5596 37.1333 38.1531C37.9848 38.7478 39.0009 39.0755 40.0471 39.0928C41.0933 39.1101 42.1202 38.8162 42.9918 38.2501C43.862 37.6848 44.5364 36.8746 44.9258 35.9267C45.4705 34.7192 45.7263 33.406 45.6735 32.0872C45.6415 31.1244 45.5879 30.1542 45.5346 29.1889C45.5084 28.7154 45.4823 28.2429 45.4589 27.7733C45.4471 27.3024 45.2883 26.8463 45.0037 26.4662C44.8276 26.2259 44.5932 26.0321 44.3215 25.9023Z" fill="#3A3B7B"/>
<path d="M53.9558 33.1564C53.9282 33.1907 53.8991 33.2262 53.8687 33.2631C53.6473 32.0143 53.4421 30.7659 53.2366 29.5156C53.1629 29.067 53.0888 28.6165 53.0143 28.1673L53.0059 28.1172L52.9787 28.0739C52.9274 27.9924 52.9223 27.9125 52.9223 27.7421V27.7224L52.9192 27.7029C52.8636 27.351 52.7008 27.0235 52.4521 26.7633C52.2041 26.5038 51.882 26.3232 51.5277 26.2448C51.174 26.1595 50.8023 26.1783 50.4594 26.2989C50.1174 26.4192 49.8193 26.6354 49.6023 26.9204C49.4219 27.1391 49.274 27.3817 49.1632 27.6409C48.9117 28.1993 48.658 28.7591 48.4036 29.3204L48.3992 29.3301C47.7641 30.7314 47.1247 32.1421 46.5039 33.5639L46.502 33.5685C46.1209 34.4904 45.8063 35.4618 45.4928 36.4302C45.4302 36.6235 45.3676 36.8167 45.3045 37.0094C45.1913 37.315 45.1418 37.6396 45.1588 37.9641C45.1382 38.2546 45.2093 38.5444 45.3627 38.7943C45.5191 39.0493 45.7534 39.2499 46.0325 39.368C46.3283 39.4948 46.659 39.5217 46.9723 39.4445C47.2849 39.3674 47.5625 39.191 47.7614 38.943C48.0154 38.6375 48.2339 38.3043 48.4121 37.9513C48.938 36.8995 49.4406 35.8349 49.9409 34.7749C50.1345 34.3649 50.3226 33.9977 50.5366 33.5978C50.5513 33.6471 50.5663 33.6952 50.5818 33.7434C50.8061 34.7089 51.1847 35.6337 51.7036 36.4839C51.8018 36.664 51.9386 36.8214 52.1046 36.9453C52.2726 37.0707 52.4665 37.1587 52.6728 37.2034C52.8791 37.2481 53.0929 37.2483 53.2993 37.204C53.5054 37.1598 53.6999 37.0717 53.868 36.9469L54.2007 36.7034L56.783 34.5767L56.6303 35.5282C56.4207 36.8361 56.2127 38.1331 55.9917 39.4304C55.8471 40.0054 55.8473 40.606 55.9923 41.1808C56.0551 41.5043 56.2151 41.8021 56.4519 42.0363C56.6907 42.2724 56.9965 42.4328 57.3297 42.4968C57.6629 42.5607 58.0081 42.5253 58.3204 42.395C58.6282 42.2667 58.89 42.0521 59.073 41.7786C59.4988 41.2621 59.7638 40.6368 59.8366 39.9771C59.9462 39.0455 60.07 38.1012 60.1939 37.1572C60.3366 36.0691 60.4793 34.9813 60.5998 33.9144L60.6002 33.9111C60.7162 32.7432 60.7723 31.5705 60.7684 30.3971C60.7938 30.0263 60.6994 29.6569 60.4982 29.3412C60.2963 29.0244 59.9973 28.7781 59.6439 28.6372C59.2763 28.4738 58.8648 28.4301 58.4699 28.5127C58.0776 28.5947 57.7225 28.7969 57.4561 29.0898C56.9798 29.5205 56.533 29.9814 56.1185 30.4695L56.1157 30.4728C55.6632 31.0241 55.2138 31.5862 54.7673 32.1447C54.4958 32.4842 54.2251 32.8229 53.9558 33.1564Z" fill="#3A3B7B"/>
</g>
<defs>
<clipPath id="clip0_224_14">
<rect width="70" height="44" fill="white" transform="translate(0.759644 0.339111)"/>
</clipPath>
</defs>
</svg>
