<svg width="37" height="36" viewBox="0 0 37 36" fill="none" xmlns="http://www.w3.org/2000/svg">
<path d="M29.9 31.5L20.45 22.05C19.7 22.65 18.8375 23.125 17.8625 23.475C16.8875 23.825 15.85 24 14.75 24C12.025 24 9.71875 23.0563 7.83125 21.1688C5.94375 19.2813 5 16.975 5 14.25C5 11.525 5.94375 9.21875 7.83125 7.33125C9.71875 5.44375 12.025 4.5 14.75 4.5C17.475 4.5 19.7813 5.44375 21.6688 7.33125C23.5563 9.21875 24.5 11.525 24.5 14.25C24.5 15.35 24.325 16.3875 23.975 17.3625C23.625 18.3375 23.15 19.2 22.55 19.95L32 29.4L29.9 31.5ZM14.75 21C16.625 21 18.2188 20.3438 19.5312 19.0312C20.8438 17.7188 21.5 16.125 21.5 14.25C21.5 12.375 20.8438 10.7812 19.5312 9.46875C18.2188 8.15625 16.625 7.5 14.75 7.5C12.875 7.5 11.2812 8.15625 9.96875 9.46875C8.65625 10.7812 8 12.375 8 14.25C8 16.125 8.65625 17.7188 9.96875 19.0312C11.2812 20.3438 12.875 21 14.75 21Z" fill="white"/>
</svg>
